<svg width="20" height="20" viewBox="0 0 20 20" fill="none" xmlns="http://www.w3.org/2000/svg">
<path d="M18.6609 5.81687C18.3371 5.81687 18.0444 5.81687 17.7132 5.81687C17.7132 8.92576 17.7132 12.0214 17.7132 15.1345C17.7492 15.146 17.8181 15.1667 17.8845 15.1907C18.3723 15.3651 18.6978 15.8586 18.656 16.3578C18.6084 16.9183 18.2256 17.3589 17.6845 17.4267C17.4082 17.4614 17.1237 17.4324 16.8089 17.4324C16.8089 17.6077 16.8105 17.7499 16.8089 17.8912C16.7999 18.7013 16.221 19.2948 15.4168 19.3089C14.9552 19.3171 14.4928 19.3179 14.0312 19.308C13.2401 19.2915 12.6613 18.6963 12.6514 17.8995C12.6498 17.7623 12.6514 17.625 12.6514 17.4713C10.8027 17.4713 8.96702 17.4713 7.10596 17.4713C7.10596 17.616 7.1076 17.7598 7.10596 17.9036C7.09449 18.6905 6.52059 19.289 5.7442 19.3072C5.26048 19.3188 4.77677 19.3196 4.29306 19.3064C3.53962 19.2865 2.96327 18.6897 2.94851 17.9309C2.94523 17.7796 2.94769 17.6283 2.94769 17.4548C2.73371 17.4548 2.54023 17.4556 2.34756 17.4548C1.66709 17.4498 1.19485 17.0547 1.10877 16.419C1.02924 15.8379 1.39162 15.3328 2.01962 15.146C2.0393 15.1402 2.05733 15.127 2.04176 15.1353C2.04176 12.0181 2.04176 8.92245 2.04176 5.81521C1.7089 5.81521 1.41621 5.81521 1.09483 5.81521C1.09483 5.8987 1.09483 5.97557 1.09483 6.05328C1.09483 7.03612 1.09647 8.01814 1.09401 9.00098C1.09319 9.30187 0.948899 9.48786 0.706223 9.52009C0.424195 9.55729 0.1807 9.36882 0.178241 9.07786C0.171682 7.96441 0.166763 6.85096 0.18152 5.73751C0.188079 5.26717 0.584886 4.89684 1.05712 4.88114C1.3662 4.87039 1.67692 4.87949 2.01306 4.87949C2.01798 4.78856 2.02536 4.71168 2.02536 4.63563C2.027 4.25705 2.02208 3.87846 2.027 3.49987C2.03848 2.67077 2.61319 2.09628 3.43796 2.08222C3.57324 2.07974 3.70851 2.08222 3.86674 2.08222C3.86674 1.91938 3.86346 1.78216 3.86756 1.64577C3.88314 1.07045 4.25781 0.686074 4.82596 0.686074C8.34886 0.682767 11.8709 0.682767 15.3938 0.686074C15.9644 0.6869 16.3317 1.07045 16.3416 1.65073C16.344 1.78712 16.3416 1.92351 16.3416 2.06073C16.4793 2.08718 16.5924 2.10124 16.7023 2.13099C17.295 2.29136 17.7033 2.7989 17.7222 3.41555C17.7345 3.81563 17.7263 4.21571 17.7279 4.61662C17.7279 4.69432 17.7279 4.77203 17.7279 4.87783C18.0255 4.87783 18.2977 4.87618 18.5699 4.87783C19.2086 4.88197 19.5783 5.25311 19.5791 5.89457C19.5808 6.92783 19.5808 7.96193 19.5791 8.99519C19.5783 9.2903 19.4332 9.48538 19.1955 9.52092C18.888 9.56721 18.6626 9.36304 18.6609 9.02082C18.6568 8.04542 18.6593 7.07001 18.6593 6.09543C18.6609 6.00781 18.6609 5.92185 18.6609 5.81687ZM9.87132 15.1105C11.9865 15.1105 14.1017 15.1105 16.2178 15.1105C16.6695 15.1105 16.8089 14.9683 16.8089 14.5087C16.8089 10.8766 16.8089 7.2436 16.8089 3.61146C16.8089 3.16509 16.6531 3.00886 16.2087 3.00886C11.9849 3.00886 7.76184 3.00886 3.53798 3.00886C3.10674 3.00886 2.94687 3.16757 2.94687 3.59823C2.94687 7.23781 2.94687 10.8774 2.94687 14.517C2.94687 14.9617 3.09116 15.1097 3.52568 15.1097C5.64089 15.1105 7.7561 15.1105 9.87132 15.1105ZM9.90165 16.0578C9.90165 16.0603 9.90165 16.0636 9.90165 16.0661C7.7725 16.0661 5.64335 16.0661 3.51503 16.0661C3.10346 16.0661 2.69272 16.0611 2.28115 16.0594C2.1139 16.0586 2.0188 16.1371 2.03192 16.3124C2.04422 16.4827 2.16473 16.5182 2.30903 16.5174C2.81405 16.5141 3.31908 16.5091 3.82411 16.5099C5.92374 16.5116 8.0242 16.5174 10.1238 16.5174C12.1448 16.5174 14.1649 16.5116 16.1858 16.5099C16.6113 16.5099 17.0376 16.5149 17.4631 16.5174C17.6123 16.5182 17.7206 16.4645 17.7246 16.2967C17.7287 16.1165 17.6181 16.0578 17.4582 16.0594C17.3934 16.0603 17.3287 16.0594 17.2631 16.0594C14.8093 16.0578 12.3555 16.0578 9.90165 16.0578ZM15.4127 1.62676C11.8717 1.62676 8.34148 1.62676 4.81367 1.62676C4.81367 1.7772 4.81367 1.91194 4.81367 2.05164C8.35378 2.05164 11.8783 2.05164 15.4127 2.05164C15.4127 1.90285 15.4127 1.76811 15.4127 1.62676ZM3.86756 17.4763C3.86756 17.5953 3.86674 17.7027 3.86838 17.8094C3.8692 17.8672 3.87002 17.9259 3.87986 17.983C3.92167 18.2194 4.08482 18.3756 4.32422 18.3797C4.79153 18.388 5.25967 18.3872 5.72698 18.3797C5.93276 18.3764 6.10001 18.2715 6.14592 18.0673C6.18937 17.8763 6.17872 17.6738 6.19265 17.4754C5.39576 17.4763 4.64314 17.4763 3.86756 17.4763ZM15.8857 17.4754C15.0995 17.4754 14.3469 17.4754 13.5713 17.4754C13.5713 17.6159 13.5672 17.7449 13.5721 17.8739C13.5852 18.202 13.7648 18.3797 14.0911 18.3822C14.5231 18.3855 14.9544 18.3864 15.3864 18.3814C15.6808 18.3781 15.8611 18.2111 15.8833 17.9201C15.8947 17.778 15.8857 17.6333 15.8857 17.4754Z" fill="#EC4C2F"/>
<path d="M9.88194 12.3225C7.93398 12.3225 5.9852 12.3225 4.03724 12.3225C3.54369 12.3225 3.41333 12.1886 3.41333 11.6852C3.41333 9.31282 3.41333 6.94044 3.41333 4.56806C3.41333 4.0787 3.5568 3.93652 4.05035 3.93652C7.93316 3.93652 11.8168 3.93652 15.6996 3.93652C16.2071 3.93652 16.344 4.07374 16.344 4.58211C16.344 6.95449 16.344 9.32687 16.344 11.6993C16.344 12.1853 16.2079 12.3225 15.7275 12.3225C13.7787 12.3225 11.8299 12.3225 9.88194 12.3225ZM12.8227 11.3942C12.7621 11.2669 12.7194 11.176 12.6743 11.0859C12.3874 10.5073 12.0996 9.92947 11.8143 9.35002C11.6643 9.045 11.7266 8.78379 11.9758 8.65235C12.2283 8.51927 12.4858 8.63004 12.6432 8.93919C12.6596 8.97143 12.6752 9.00449 12.6907 9.03673C13.0515 9.76498 13.4114 10.4941 13.777 11.2198C13.8115 11.2884 13.8844 11.3843 13.941 11.386C14.4288 11.3992 14.9175 11.3934 15.4094 11.3934C15.4094 9.21032 15.4094 7.05203 15.4094 4.89209C11.7127 4.89209 8.02908 4.89209 4.34714 4.89209C4.34714 7.06691 4.34714 9.22437 4.34714 11.3794C5.3244 11.3794 6.28608 11.3794 7.26662 11.3794C7.22809 11.2959 7.20021 11.2306 7.16824 11.1669C6.85915 10.5428 6.54597 9.92038 6.24181 9.29381C6.11309 9.02846 6.20492 8.76064 6.44677 8.64409C6.67879 8.5325 6.92474 8.62508 7.06494 8.87802C7.09281 8.92844 7.11823 8.98135 7.14446 9.03342C7.50274 9.75506 7.86429 10.475 8.21437 11.2C8.28323 11.343 8.35948 11.4 8.52181 11.3984C9.27935 11.3884 10.0377 11.3942 10.7961 11.3942C11.461 11.3942 12.1242 11.3942 12.8227 11.3942Z" fill="#EC4C2F"/>
<path d="M9.86725 14.1894C9.26138 14.1894 8.65551 14.1902 8.04964 14.1885C7.84222 14.1877 7.68481 14.0927 7.60692 13.8984C7.53396 13.7157 7.55445 13.5264 7.71022 13.4C7.80368 13.3247 7.94142 13.2677 8.05948 13.2669C9.27121 13.2578 10.483 13.2586 11.6947 13.2627C11.9972 13.2636 12.1841 13.452 12.1809 13.7281C12.1784 13.9984 11.9825 14.1852 11.684 14.1877C11.079 14.1927 10.4731 14.1902 9.86725 14.1894Z" fill="#EC4C2F"/>
<path d="M6.63786 13.7254C6.63786 14.1131 6.33779 14.4173 5.9541 14.419C5.57451 14.4206 5.26215 14.1148 5.25559 13.7345C5.24903 13.351 5.57615 13.0195 5.95574 13.0245C6.33287 13.0278 6.63868 13.3427 6.63786 13.7254Z" fill="#EC4C2F"/>
<path d="M13.8065 14.4171C13.4228 14.4171 13.1203 14.1145 13.1178 13.7285C13.1154 13.335 13.4318 13.0151 13.8155 13.0226C14.1877 13.03 14.5034 13.3557 14.5001 13.7277C14.4968 14.1079 14.1853 14.4171 13.8065 14.4171Z" fill="#EC4C2F"/>
</svg>
