<svg width="11" height="10" viewBox="0 0 11 10" fill="none" xmlns="http://www.w3.org/2000/svg">
<g clip-path="url(#clip0_614_8925)">
<g clip-path="url(#clip1_614_8925)">
<path d="M0.846621 0.177322C0.960342 0.0636349 1.11456 -0.000231114 1.27536 -0.000231114C1.43617 -0.000231114 1.59038 0.0636349 1.70411 0.177322L5.52034 3.99356L9.33658 0.177322C9.39252 0.119402 9.45944 0.0732034 9.53342 0.0414213C9.60741 0.0096391 9.68699 -0.0070899 9.76751 -0.0077896C9.84803 -0.00848931 9.92788 0.0068543 10.0024 0.0373459C10.0769 0.0678375 10.1446 0.112867 10.2016 0.169805C10.2585 0.226744 10.3036 0.294453 10.334 0.368981C10.3645 0.443508 10.3799 0.523362 10.3792 0.603883C10.3785 0.684403 10.3617 0.763979 10.33 0.837965C10.2982 0.911951 10.252 0.978867 10.1941 1.03481L6.37783 4.85105L10.1941 8.66728C10.3045 8.78166 10.3657 8.93484 10.3643 9.09384C10.3629 9.25284 10.2991 9.40494 10.1867 9.51738C10.0742 9.62982 9.92214 9.69359 9.76314 9.69498C9.60414 9.69636 9.45095 9.63523 9.33658 9.52477L5.52034 5.70853L1.70411 9.52477C1.58973 9.63523 1.43655 9.69636 1.27755 9.69498C1.11854 9.69359 0.966444 9.62982 0.854008 9.51738C0.741572 9.40494 0.677794 9.25284 0.676413 9.09384C0.675031 8.93484 0.736155 8.78166 0.846621 8.66728L4.66286 4.85105L0.846621 1.03481C0.732933 0.921086 0.669067 0.766867 0.669067 0.606065C0.669067 0.445263 0.732933 0.291044 0.846621 0.177322Z" fill="white"/>
</g>
</g>
<defs>
<clipPath id="clip0_614_8925">
<rect width="9.70281" height="9.70281" fill="white" transform="translate(0.668945)"/>
</clipPath>
<clipPath id="clip1_614_8925">
<rect width="9.70281" height="9.70281" fill="white" transform="translate(0.668945)"/>
</clipPath>
</defs>
</svg>
