<svg width="28" height="37" viewBox="0 0 28 37" fill="none" xmlns="http://www.w3.org/2000/svg">
<path d="M13.1518 5.12082C13.1518 4.57121 13.1518 4.0406 13.1518 3.51087C13.1518 2.68818 13.1469 1.86548 13.1535 1.04279C13.1584 0.370466 13.4746 0.163064 14.0376 0.455155C14.8953 0.901067 15.7497 1.35217 16.6074 1.79808C16.8658 1.93289 17.0945 2.08412 17.0895 2.43584C17.0846 2.7841 16.8212 2.8878 16.5868 3.01397C15.909 3.37778 15.2395 3.76061 14.5469 4.089C14.2184 4.24541 14.0962 4.45109 14.1499 4.80626C14.1639 4.89959 14.1523 4.99724 14.1523 5.11391C14.4041 5.1623 14.641 5.1986 14.8738 5.25304C17.1382 5.78278 18.8743 7.77642 19.2268 10.1944C19.6585 13.1568 20.1175 16.1148 20.5732 19.1299C20.7078 19.1299 20.8415 19.1299 20.9752 19.1299C22.5115 19.1299 24.0486 19.1282 25.5849 19.1308C26.6317 19.1325 27.1352 19.6622 27.1377 20.7546C27.1385 21.0086 27.1427 21.2627 27.1344 21.5168C27.1088 22.279 26.5978 22.8372 25.8722 22.8882C25.6559 22.9038 25.4372 22.8908 25.1928 22.8908C25.1928 26.128 25.1928 29.3271 25.1928 32.5842C25.4066 32.5842 25.6221 32.5764 25.8367 32.5859C26.5755 32.6188 27.1105 33.1839 27.1336 33.9591C27.1435 34.2858 27.1452 34.6124 27.1319 34.9391C27.1031 35.6857 26.5582 36.2543 25.845 36.2924C25.7409 36.2976 25.6369 36.2941 25.5329 36.2941C17.6302 36.2941 9.72757 36.2837 1.82489 36.3079C0.937463 36.3097 0.117725 35.7203 0.211834 34.6072C0.22917 34.4033 0.211008 34.1959 0.216787 33.9902C0.239076 33.1952 0.800427 32.6084 1.56486 32.5825C1.75803 32.5756 1.9512 32.5816 2.16501 32.5816C2.16501 29.3029 2.16501 26.0675 2.16501 22.7905C1.93799 22.7905 1.7217 22.7966 1.50542 22.7897C0.756675 22.7638 0.177162 22.1528 0.158175 21.3698C0.151571 21.1037 0.154873 20.8375 0.15735 20.5714C0.165605 19.6942 0.736037 19.0841 1.56981 19.0815C3.17544 19.0755 4.7819 19.072 6.38753 19.0867C6.68058 19.0893 6.78047 18.9994 6.8234 18.6952C7.22955 15.8504 7.64892 13.0073 8.06993 10.165C8.44802 7.61568 10.2691 5.66525 12.687 5.20897C12.8241 5.18304 12.9595 5.15712 13.1518 5.12082ZM8.62715 22.9184C8.62715 26.1565 8.62715 29.3721 8.62715 32.6075C9.26775 32.6075 9.89597 32.6075 10.549 32.6075C10.549 32.4494 10.549 32.318 10.549 32.1858C10.549 30.2138 10.544 28.2417 10.5514 26.2697C10.5547 25.2915 11.2168 24.607 12.1496 24.6027C13.1089 24.5975 14.0698 24.6485 15.0257 24.5898C16.2516 24.5146 16.9434 25.5473 16.9269 26.5722C16.8972 28.4595 16.9186 30.3469 16.9186 32.2342C16.9186 32.3742 16.9186 32.5133 16.9186 32.6499C17.5865 32.6499 18.2023 32.6499 18.8149 32.6499C18.8149 29.3868 18.8149 26.153 18.8149 22.9184C15.4013 22.9184 12.0209 22.9184 8.62715 22.9184ZM13.6025 21.757C17.4949 21.757 21.3863 21.757 25.2787 21.757C26.0951 21.757 26.0951 21.757 26.0951 20.8928C26.0951 20.2335 26.0885 20.2265 25.4545 20.2265C17.74 20.2265 10.0256 20.2257 2.3103 20.2274C1.09679 20.2274 1.2718 20.0883 1.25941 21.4053C1.25941 21.4174 1.25941 21.4295 1.26024 21.4416C1.27923 21.6689 1.37086 21.7967 1.61604 21.7682C1.79848 21.7466 1.98504 21.757 2.16996 21.757C5.97972 21.7561 9.79113 21.757 13.6025 21.757ZM13.6735 33.7301C9.80351 33.7301 5.93432 33.7301 2.06429 33.7301C1.25776 33.7301 1.25776 33.7301 1.25776 34.5588C1.25776 35.2234 1.29244 35.2606 1.91818 35.2606C9.68051 35.2606 17.4429 35.2606 25.2052 35.2606C26.0951 35.2606 26.0951 35.2606 26.0934 34.3247C26.0926 33.7578 26.0662 33.7301 25.5238 33.7301C21.5746 33.7301 17.6236 33.7301 13.6735 33.7301ZM11.5321 32.6464C12.9834 32.6464 14.3926 32.6464 15.8199 32.6464C15.8199 31.1177 15.8199 29.6201 15.8199 28.1234C15.8199 27.5314 15.8273 26.9394 15.8166 26.3475C15.8092 25.9405 15.6185 25.7503 15.2371 25.7495C14.2217 25.7477 13.2063 25.7477 12.1909 25.7512C11.7171 25.7529 11.5363 25.9379 11.5321 26.4218C11.5272 27.0138 11.5313 27.6057 11.5313 28.1977C11.5321 29.6702 11.5321 31.1436 11.5321 32.6464ZM9.32472 9.59032C12.2413 9.59032 15.1306 9.59032 18.0257 9.59032C17.641 7.76259 15.7448 6.2719 13.7883 6.23474C11.7385 6.19585 9.80434 7.63902 9.32472 9.59032ZM15.5524 19.11C15.3081 17.1043 15.067 15.1227 14.8235 13.1222C14.1276 13.1222 13.4696 13.1326 12.8133 13.117C12.569 13.111 12.5112 13.206 12.4864 13.4454C12.3453 14.79 12.1827 16.133 12.0308 17.4759C11.9697 18.0125 11.9168 18.5501 11.8582 19.1109C13.1048 19.11 14.3117 19.11 15.5524 19.11ZM15.8199 13.1395C16.0576 15.1003 16.288 17.0161 16.529 18.9312C16.5381 19.0037 16.6495 19.1187 16.7147 19.1195C17.6352 19.1316 18.5548 19.1282 19.5215 19.1282C19.2053 17.1026 18.8949 15.1219 18.5854 13.1403C17.6501 13.1395 16.7544 13.1395 15.8199 13.1395ZM11.4826 13.1222C10.6158 13.1222 9.81012 13.1317 9.00441 13.1161C8.76584 13.1118 8.6998 13.1991 8.6643 13.4367C8.45297 14.8557 8.221 16.2712 7.99893 17.6885C7.92546 18.1577 7.8586 18.6287 7.7876 19.11C8.79886 19.11 9.76472 19.11 10.7537 19.11C10.9956 17.1224 11.2358 15.1495 11.4826 13.1222ZM24.0891 32.6231C24.0891 29.3859 24.0891 26.1548 24.0891 22.9236C23.602 22.9236 23.1463 22.9236 22.675 22.9236C22.675 26.1625 22.675 29.3747 22.675 32.6231C23.1513 32.6231 23.6086 32.6231 24.0891 32.6231ZM3.26294 22.9115C3.26294 26.1677 3.26294 29.3868 3.26294 32.6326C3.75083 32.6326 4.20816 32.6326 4.6655 32.6326C4.6655 29.3902 4.6655 26.1591 4.6655 22.9115C4.18835 22.9115 3.74092 22.9115 3.26294 22.9115ZM8.87646 11.9521C12.1042 11.9521 15.275 11.9521 18.4731 11.9521C18.4236 11.6574 18.3501 11.3861 18.3394 11.1121C18.3262 10.7751 18.1809 10.7068 17.8828 10.7086C15.0546 10.7198 12.2256 10.7155 9.39736 10.7155C9.28427 10.7155 9.17117 10.725 9.03331 10.7319C8.98048 11.1406 8.93012 11.5321 8.87646 11.9521ZM5.75848 27.2021C6.35946 27.2021 6.91833 27.2021 7.49289 27.2021C7.49289 26.6249 7.49289 26.0658 7.49289 25.4971C6.90595 25.4971 6.338 25.4971 5.75848 25.4971C5.75848 26.0727 5.75848 26.624 5.75848 27.2021ZM19.8542 27.1926C20.4519 27.1926 21.0198 27.1926 21.5894 27.1926C21.5894 26.6145 21.5894 26.064 21.5894 25.4937C21.0041 25.4937 20.4362 25.4937 19.8542 25.4937C19.8542 26.0666 19.8542 26.6171 19.8542 27.1926ZM5.76426 28.3264C5.76426 28.9141 5.76426 29.4663 5.76426 30.0314C6.35285 30.0314 6.92164 30.0314 7.48299 30.0314C7.48299 29.4455 7.48299 28.8856 7.48299 28.3264C6.901 28.3264 6.34955 28.3264 5.76426 28.3264ZM21.5878 28.3377C21.0149 28.3377 20.4453 28.3377 19.8633 28.3377C19.8633 28.9097 19.8633 29.4706 19.8633 30.0375C20.4469 30.0375 21.0074 30.0375 21.5878 30.0375C21.5878 29.4671 21.5878 28.9158 21.5878 28.3377ZM7.48877 24.3582C7.48877 23.8587 7.48877 23.3937 7.48877 22.9176C6.9043 22.9176 6.34377 22.9176 5.76509 22.9176C5.76509 23.4058 5.76509 23.8708 5.76509 24.3582C6.34542 24.3582 6.90513 24.3582 7.48877 24.3582ZM21.5828 24.3651C21.5828 23.8638 21.5828 23.3981 21.5828 22.9159C20.9975 22.9159 20.437 22.9159 19.8682 22.9159C19.8682 23.4102 19.8682 23.8837 19.8682 24.3651C20.4469 24.3651 20.9975 24.3651 21.5828 24.3651ZM7.50115 31.1722C6.90347 31.1722 6.34377 31.1722 5.76509 31.1722C5.76509 31.6595 5.76509 32.1253 5.76509 32.6041C6.35368 32.6041 6.92246 32.6041 7.50115 32.6041C7.50115 32.1176 7.50115 31.6604 7.50115 31.1722ZM19.8509 32.6119C20.4453 32.6119 21.0058 32.6119 21.5869 32.6119C21.5869 32.1245 21.5869 31.6595 21.5869 31.1756C20.9992 31.1756 20.4312 31.1756 19.8509 31.1756C19.8509 31.6595 19.8509 32.1167 19.8509 32.6119ZM15.5045 2.40041C15.0431 2.16967 14.6501 1.9735 14.2283 1.76265C14.2283 2.23362 14.2283 2.63287 14.2283 3.08915C14.6567 2.85842 15.0406 2.65102 15.5045 2.40041Z" fill="white"/>
</svg>
