<svg width="32" height="32" viewBox="0 0 32 32" fill="none" xmlns="http://www.w3.org/2000/svg">
<g clip-path="url(#clip0_704_2443)">
<path d="M27.0148 0.101562C27.1603 0.168622 27.3162 0.225365 27.4565 0.302742C27.9866 0.607091 28.2983 1.05588 28.3243 1.67489C28.3451 2.13399 28.3295 2.59825 28.3295 3.1141C28.7037 3.1141 29.0518 3.10378 29.4 3.11926C29.6546 3.12957 29.9248 3.12441 30.169 3.19147C30.8913 3.3875 31.3642 4.02714 31.3694 4.76996C31.3746 5.39929 31.3746 6.02346 31.3694 6.6528C31.3642 7.571 30.6419 8.29318 29.717 8.30866C29.2753 8.31898 28.8284 8.30866 28.3087 8.30866C28.3659 8.47373 28.3971 8.60785 28.4594 8.72133C29.2285 10.1347 29.7273 11.641 29.9248 13.235C30.2626 15.9844 29.7949 18.5946 28.4542 21.0294C26.7654 24.0832 24.2348 26.1414 20.8987 27.2247C20.8416 27.2453 20.7844 27.2608 20.6961 27.2918C20.748 27.364 20.7844 27.4207 20.826 27.4723C21.3404 28.1171 21.3924 28.829 20.8727 29.4789C20.5765 29.8504 20.2076 30.1908 19.8023 30.4436C18.1446 31.4959 16.2999 31.8157 14.3669 31.6403C11.3582 31.3618 8.97826 29.871 7.00884 27.7044C3.81307 24.1915 1.79689 20.0699 0.830362 15.4583C0.393867 13.3639 0.373082 11.249 1.05381 9.1856C1.92679 6.54447 3.55845 4.53783 6.16703 3.40297C6.70225 3.17084 7.25826 3.03156 7.85065 3.05736C8.61452 3.08315 9.12896 3.45456 9.38877 4.17674C9.40956 4.22832 9.43554 4.27991 9.43554 4.27991C10.2981 3.83628 11.1296 3.33075 12.0233 2.9645C15.3646 1.59751 18.7162 1.61299 22.0679 2.9645C22.3693 3.08831 22.7174 3.09862 23.102 3.176C23.102 2.70142 23.102 2.31454 23.102 1.93281C23.102 1.00429 23.4657 0.488446 24.3387 0.163464C24.3647 0.153147 24.3803 0.127355 24.4011 0.106721C25.2741 0.101562 26.1419 0.101562 27.0148 0.101562ZM18.6383 24.9808C18.6487 25.0324 18.6487 25.0581 18.6591 25.0736C18.9605 25.4141 19.2723 25.7442 19.5633 26.0898C19.6724 26.2188 19.7711 26.2446 19.9322 26.1982C22.4005 25.5534 24.4686 24.2741 26.0743 22.3035C28.4438 19.389 29.2389 16.067 28.4958 12.3993C28.3815 11.8267 28.184 11.2748 28.0385 10.7796C27.5709 11.0117 27.1499 11.2129 26.7031 11.4295C26.6979 11.3934 26.6979 11.4347 26.7083 11.4708C27.2071 12.8842 27.4357 14.344 27.2435 15.8297C27.1396 16.6292 26.9473 17.4185 26.7342 18.1974C26.6043 18.6771 25.9704 18.77 25.669 18.3986C25.4715 18.1561 25.5235 17.9034 25.6118 17.6403C26.2406 15.6646 26.1886 13.7044 25.4923 11.7545C25.3728 11.4244 25.2273 11.3057 24.8635 11.3109C23.8139 11.3367 23.102 10.6042 23.102 9.55184C23.102 9.14433 23.102 8.73681 23.102 8.3035C22.6239 8.3035 22.177 8.30866 21.7353 8.3035C20.8416 8.28802 20.1141 7.60711 20.0725 6.71986C20.0621 6.48257 19.9842 6.38456 19.7659 6.32265C16.4766 5.37866 13.5459 6.02346 10.9373 8.22096C10.4488 8.63364 10.2306 9.036 10.3813 9.71692C10.6411 10.8982 10.1734 11.7751 9.10297 12.3529C8.76521 12.5386 8.54696 12.8171 8.51059 13.1679C8.45343 13.756 8.38588 14.3595 8.46382 14.9424C8.74442 16.9697 9.4927 18.8164 10.7294 20.4671C11.3322 21.2718 11.9766 22.0301 12.8392 22.5718C13.3484 22.8916 13.8525 23.0051 14.4448 22.7214C15.1256 22.3912 15.8271 22.4634 16.4506 22.8864C16.7988 23.1186 17.0898 23.4384 17.4172 23.7015C17.5107 23.7737 17.651 23.8459 17.7601 23.8356C19.4853 23.6757 21.0546 23.0979 22.4472 22.0662C22.6707 21.9012 22.8785 21.7103 23.0968 21.5401C23.3878 21.3183 23.7359 21.3492 23.9594 21.6071C24.1776 21.8547 24.1568 22.221 23.9074 22.4686C23.7983 22.5769 23.6788 22.6749 23.5593 22.773C22.1251 23.9388 20.483 24.6661 18.6383 24.9808ZM1.80208 13.0647C1.85405 13.4981 1.89042 14.3647 2.0671 15.2055C2.96087 19.5128 4.82637 23.361 7.75712 26.6676C9.60183 28.7516 11.8259 30.2114 14.715 30.4126C16.2792 30.5209 17.7653 30.2372 19.1112 29.4067C19.3554 29.2571 19.5788 29.0663 19.7763 28.8599C20.0309 28.5917 20.0153 28.4369 19.7711 28.1635C19.4437 27.7921 19.1112 27.4259 18.7734 27.0596C17.9212 26.1208 17.0794 25.1716 16.2064 24.2483C15.6816 23.6963 15.3802 23.6602 14.6839 23.9542C14.2422 24.1399 13.7953 24.1915 13.3224 24.0935C12.5897 23.9388 11.9766 23.5622 11.4361 23.0773C9.66418 21.4937 8.44304 19.5592 7.73113 17.305C7.31542 15.9999 7.00364 14.669 7.2011 13.2814C7.32062 12.4457 7.64799 11.7287 8.44304 11.2954C9.12376 10.924 9.27445 10.6093 9.14455 9.83556C9.01983 9.07727 8.88473 8.31898 8.74962 7.56068C8.58334 6.61153 8.41186 5.66237 8.23518 4.71322C8.16763 4.34697 8.0689 4.27991 7.68437 4.28507C7.58044 4.28507 7.47651 4.29538 7.37778 4.32118C6.01114 4.65132 4.9199 5.41993 4.00534 6.45162C2.43604 8.22097 1.81247 10.3205 1.80208 13.0647ZM27.0824 2.76848C27.0824 2.45897 27.0876 2.15463 27.0824 1.84512C27.0772 1.50466 26.9161 1.33959 26.568 1.33443C26.0119 1.32927 25.4507 1.32927 24.8947 1.33443C24.5206 1.33959 24.3543 1.50982 24.3491 1.88639C24.3439 2.45897 24.3491 3.03672 24.3491 3.60931C24.3491 4.10968 24.1153 4.34181 23.6112 4.34697C23.0344 4.35213 22.4524 4.34697 21.8756 4.34697C21.4859 4.34697 21.33 4.50172 21.3248 4.88861C21.3196 5.43024 21.3196 5.97704 21.3248 6.51868C21.33 6.91588 21.4911 7.06547 21.9068 7.06547C22.4836 7.06547 23.0656 7.06547 23.6424 7.06547C24.1101 7.07063 24.3491 7.30276 24.3491 7.76186C24.3543 8.32413 24.3491 8.89156 24.3491 9.45383C24.3491 9.91294 24.4998 10.0677 24.9571 10.0728C25.4767 10.078 25.9912 10.078 26.5108 10.0728C26.9421 10.0677 27.0928 9.92325 27.0928 9.50026C27.0928 8.91736 27.0876 8.32929 27.0928 7.74639C27.098 7.30792 27.3474 7.06547 27.7891 7.06031C28.3763 7.05515 28.9687 7.06031 29.5559 7.06031C29.956 7.06031 30.1223 6.89524 30.1275 6.5032C30.1327 5.96672 30.1327 5.4354 30.1275 4.89892C30.1223 4.50172 29.9612 4.34181 29.5611 4.34181C28.9739 4.33665 28.3815 4.34697 27.7943 4.34181C27.3526 4.33665 27.1032 4.08905 27.0928 3.65574C27.0772 3.36686 27.0824 3.06767 27.0824 2.76848ZM9.99155 7.36982C12.9743 4.83702 16.3103 4.0942 19.979 5.06915C20.1089 4.60489 20.2336 4.14579 20.3583 3.68153C18.498 3.11926 16.565 3.03672 14.6163 3.44424C12.8859 3.80533 11.301 4.51204 9.89802 5.59015C9.82007 5.65206 9.71614 5.76554 9.72654 5.83776C9.79409 6.34329 9.89282 6.84366 9.99155 7.36982Z" fill="white"/>
<path d="M14.8501 15.9843C15.3697 15.9843 15.8218 15.9843 16.2791 15.9843C16.5649 15.9843 16.8091 16.0668 16.9494 16.335C17.1521 16.7219 16.8767 17.212 16.4142 17.2223C15.3905 17.2429 14.3668 17.2481 13.3431 17.212C13.1457 17.2068 12.9014 17.0263 12.7819 16.856C12.6156 16.6239 12.7507 16.366 12.9274 16.1545C13.6029 15.3601 14.2837 14.576 14.9436 13.7713C15.1099 13.5701 15.2398 13.3277 15.3437 13.0852C15.4788 12.7654 15.3645 12.461 15.0943 12.3166C14.8137 12.167 14.4551 12.2341 14.2629 12.5075C14.1434 12.6828 14.0654 12.8892 13.9771 13.0852C13.8004 13.4876 13.577 13.632 13.2184 13.5495C12.8858 13.4721 12.7403 13.2451 12.7559 12.8221C12.7871 11.9813 13.5146 11.1508 14.398 11.0218C14.7461 10.9702 15.1307 10.9702 15.4684 11.0528C16.5597 11.3159 17.1209 12.3785 16.7208 13.4257C16.5805 13.7919 16.3466 14.1324 16.1076 14.4522C15.7283 14.9629 15.3022 15.4426 14.8501 15.9843Z" fill="white"/>
<path d="M20.1764 15.9115C19.6307 15.9115 19.1267 15.9115 18.6226 15.9115C18.446 15.9115 18.2693 15.8908 18.0978 15.9012C17.6405 15.9373 17.3495 15.3853 17.5834 14.9984C17.7445 14.725 17.8952 14.4465 18.0562 14.1679C18.5395 13.3219 19.0228 12.4708 19.5112 11.6248C19.823 11.0832 20.2543 10.8923 20.8051 11.0367C21.2624 11.1605 21.5482 11.5784 21.5534 12.1561C21.5586 12.9866 21.5534 13.8172 21.5534 14.6425C22.1666 14.8282 22.3328 14.983 22.3121 15.3441C22.2965 15.6742 22.1094 15.8238 21.5534 15.9424C21.5534 16.1436 21.5586 16.3551 21.5534 16.5666C21.5482 17.0205 21.2728 17.3094 20.8623 17.3043C20.4674 17.2991 20.1971 17.0102 20.1867 16.5821C20.1712 16.3757 20.1764 16.1746 20.1764 15.9115ZM20.166 14.7044C20.166 13.9874 20.166 13.3013 20.166 12.6204C20.1504 12.6152 20.1348 12.6152 20.1192 12.6101C19.7658 13.3013 19.4073 13.9925 19.0436 14.7044C19.4489 14.7044 19.797 14.7044 20.166 14.7044Z" fill="white"/>
<path d="M24.401 20.2648C24.401 19.9089 24.666 19.6406 25.0246 19.6406C25.3675 19.6406 25.6377 19.8985 25.6429 20.239C25.6481 20.5898 25.3779 20.8735 25.0298 20.8787C24.6764 20.8838 24.401 20.6156 24.401 20.2648Z" fill="white"/>
</g>
<defs>
<clipPath id="clip0_704_2443">
<rect width="30.8456" height="31.58" fill="white" transform="translate(0.518494 0.101562)"/>
</clipPath>
</defs>
</svg>
