<svg width="32" height="23" viewBox="0 0 32 23" fill="none" xmlns="http://www.w3.org/2000/svg">
<g clip-path="url(#clip0_704_2437)">
<path d="M31.7727 3.5638C31.4075 5.18648 30.2672 6.13226 28.7823 6.79425C26.5215 7.80214 24.2697 8.82927 22.0095 9.83964C21.8051 9.93093 21.692 10.0508 21.6206 10.2545C20.45 13.6228 19.2827 16.9917 18.0877 20.3513C17.907 20.8581 17.6525 21.3654 17.3214 21.7927C16.5346 22.8068 15.2888 22.6857 14.4435 22.0119C14.3021 21.8989 14.2224 21.6238 14.2372 21.4319C14.3246 20.3153 14.4499 19.2019 14.5599 18.0872C14.7264 16.4117 14.8909 14.7356 15.0619 12.9987C14.925 13.0564 14.8286 13.0943 14.7341 13.1365C11.8086 14.4549 8.88377 15.7733 5.9583 17.0917C5.33733 17.3712 5.13806 17.3022 4.85264 16.7104C4.50231 15.9838 4.15004 15.2573 3.80228 14.5295C3.58436 14.073 3.67564 13.8346 4.13976 13.6203C4.36153 13.5178 4.58523 13.4185 4.807 13.3166C4.82243 13.3098 4.83079 13.2899 4.86164 13.2539C4.76522 13.2111 4.67716 13.1695 4.58652 13.1328C3.31823 12.6248 2.04931 12.1187 0.781023 11.6101C0.202485 11.3779 0.112491 11.1264 0.416544 10.5954C0.833092 9.86759 1.24964 9.13915 1.66876 8.41258C1.91239 7.98906 2.08466 7.91702 2.57385 8.0375C4.37117 8.47779 6.16785 8.92304 7.96711 9.35712C8.10467 9.39066 8.28145 9.39625 8.40551 9.3416C9.46745 8.8715 10.521 8.38401 11.5772 7.9015C11.6132 7.88535 11.644 7.85927 11.6993 7.82325C11.5971 7.75121 11.511 7.68725 11.4216 7.62763C9.5793 6.40364 7.73634 5.18026 5.89337 3.95627C5.37911 3.61472 5.29362 3.38184 5.46718 2.79438C5.82845 1.57162 6.81389 1.02825 8.17602 1.41078C9.19618 1.69706 10.1823 2.09885 11.1748 2.47021C13.3437 3.28062 15.508 4.10283 17.6718 4.9269C17.8698 5.00204 18.0311 4.99521 18.2233 4.90827C20.8743 3.70104 23.5317 2.50685 26.1808 1.2959C27.2691 0.798474 28.3972 0.56684 29.5845 0.805305C30.6902 1.027 31.4313 1.66353 31.7167 2.74656C31.7264 2.7832 31.7521 2.81549 31.7707 2.84964C31.7727 3.08749 31.7727 3.32595 31.7727 3.5638ZM22.2249 8.56845C22.3084 8.54175 22.338 8.53492 22.365 8.5225C24.4246 7.58975 26.4868 6.66198 28.5425 5.72116C29.3775 5.33924 30.0692 4.79462 30.4755 3.96558C30.9351 3.02849 30.4825 2.11251 29.4392 1.8815C28.4538 1.66353 27.5352 1.87343 26.6378 2.27956C20.6892 4.97037 14.7366 7.65247 8.78863 10.3439C8.49358 10.4774 8.22038 10.5091 7.90218 10.4308C6.19421 10.0117 4.48238 9.60677 2.76991 9.2056C2.67477 9.18324 2.50057 9.20374 2.46328 9.26273C2.15602 9.75146 1.87253 10.2539 1.56719 10.7755C1.71376 10.8376 1.83203 10.8898 1.95224 10.9382C3.40951 11.5219 4.86679 12.1069 6.32599 12.6869C6.58826 12.7913 6.81067 12.9279 6.81967 13.2297C6.82867 13.5315 6.61719 13.683 6.35813 13.7967C5.89401 14.0004 5.4344 14.2134 4.94521 14.4344C5.20684 14.9728 5.4569 15.4883 5.71402 16.0186C5.8143 15.9795 5.88951 15.954 5.96151 15.9217C8.95255 14.576 11.9423 13.2272 14.9359 11.8877C15.1358 11.7983 15.1969 11.6809 15.2098 11.4816C15.2387 11.027 15.2856 10.573 15.3403 10.1203C15.3808 9.78313 15.6308 9.56578 15.9246 9.58441C16.2441 9.60428 16.4453 9.84647 16.4401 10.2054C16.4395 10.2551 16.4369 10.3048 16.4324 10.3538C16.3251 11.4487 16.2171 12.5435 16.1091 13.6389C15.868 16.0851 15.6257 18.5318 15.3878 20.9779C15.3473 21.3928 15.4823 21.5281 15.9162 21.4648C16.0834 21.4406 16.3006 21.3499 16.3803 21.2226C16.6523 20.7867 16.9357 20.3414 17.1042 19.8632C18.5794 15.6758 20.0296 11.4797 21.4888 7.28732C21.6309 6.87871 21.9118 6.70793 22.239 6.81785C22.5816 6.93273 22.689 7.2097 22.5482 7.62888C22.4473 7.92696 22.3431 8.22442 22.2249 8.56845ZM16.5552 5.65719C16.4202 5.59758 16.3578 5.56653 16.2923 5.54231C13.7358 4.57976 11.1806 3.6141 8.62086 2.66024C8.2988 2.54039 7.95682 2.45407 7.61613 2.39942C7.23879 2.33856 6.87431 2.38513 6.64997 2.75339C6.52783 2.95397 6.50148 3.09494 6.75346 3.25888C8.60607 4.46611 10.4587 5.67334 12.2804 6.9228C12.7304 7.23143 13.0647 7.27801 13.5577 7.0265C14.5149 6.53902 15.5132 6.12729 16.5552 5.65719Z" fill="white"/>
</g>
<defs>
<clipPath id="clip0_704_2437">
<rect width="31.5252" height="21.8251" fill="white" transform="translate(0.247253 0.710938)"/>
</clipPath>
</defs>
</svg>
