<svg width="10" height="15" viewBox="0 0 10 15" fill="none" xmlns="http://www.w3.org/2000/svg">
<g clip-path="url(#clip0_1383_2574)">
<path d="M2.15963 15.0001C1.97459 14.8203 1.97195 14.7249 2.15434 14.526C2.27594 14.3898 2.40546 14.259 2.51913 14.1173C2.69624 13.8993 2.92357 13.7685 3.18262 13.6895C3.22756 13.6759 3.2725 13.6595 3.31744 13.6486C4.09989 13.4661 4.51754 12.9238 4.71316 12.1609C4.74752 12.0246 4.78188 11.8857 4.80303 11.7494C4.82682 11.5996 4.89026 11.4797 4.98807 11.3652C5.57226 10.7004 6.15381 10.0301 6.73272 9.35979C6.78558 9.29985 6.83581 9.229 6.87017 9.15816C6.97855 8.93745 6.9389 8.72491 6.77237 8.5914C6.60319 8.45516 6.35471 8.45788 6.18289 8.61047C5.8366 8.91565 5.4956 9.22355 5.15196 9.52873C4.74488 9.89113 4.33515 10.2535 3.92806 10.6214C3.8329 10.7058 3.73774 10.774 3.61086 10.714C3.48133 10.6513 3.47869 10.526 3.47869 10.4007C3.47869 9.6241 3.47869 8.84753 3.47869 8.07369C3.47869 8.01647 3.47869 7.95925 3.47869 7.8775C3.23549 7.95652 3.01345 8.05461 2.78083 8.10094C2.27329 8.20175 2.03803 8.52055 1.91643 9.03009C1.69439 9.97015 1.41947 10.8966 1.17099 11.8312C1.10491 12.0846 0.983312 12.2971 0.792987 12.4715C0.658174 12.5941 0.53129 12.7249 0.396477 12.8475C0.28281 12.9511 0.145353 12.9483 0.0554775 12.8448C-0.0291115 12.7467 -0.0238247 12.6105 0.0819115 12.5069C0.206152 12.3816 0.335678 12.259 0.467849 12.1391C0.607949 12.011 0.689894 11.8557 0.740119 11.6704C1.01239 10.6513 1.2873 9.635 1.56222 8.61865C1.68117 8.17451 1.95344 7.88568 2.37903 7.74399C2.68831 7.64317 2.99759 7.53145 3.30951 7.44154C3.44168 7.40339 3.48397 7.34617 3.48397 7.20175C3.47869 5.59685 3.48133 3.99194 3.48133 2.38432C3.48133 1.97832 3.4919 1.57505 3.47869 1.16906C3.4549 0.406113 4.04702 -0.00805566 4.60478 0.000118727C6.04014 0.0219171 7.47287 0.00829311 8.90824 0.00829311C9.56645 0.00829311 9.99997 0.457884 9.99997 1.13636C9.99997 4.37614 9.99997 7.61592 9.99997 10.8557C9.99997 11.5451 9.56909 11.9919 8.90031 11.9947C7.73985 11.9974 6.5794 11.9947 5.42159 11.9947C5.36608 11.9947 5.30792 11.9947 5.23919 11.9947C5.20747 12.1118 5.17575 12.2263 5.14139 12.3407C4.98807 12.8557 4.76602 13.3298 4.34308 13.6731C4.09196 13.8775 3.80647 14.0028 3.50248 14.0791C3.18527 14.1609 2.9315 14.3162 2.72796 14.5778C2.61165 14.7276 2.46626 14.8557 2.33409 14.9947C2.27329 15.0001 2.21514 15.0001 2.15963 15.0001ZM9.53208 10.2562C9.53208 7.40884 9.53208 4.57233 9.53208 1.74126C7.66584 1.74126 5.81281 1.74126 3.95186 1.74126C3.95186 4.47968 3.95186 7.21265 3.95186 9.97287C4.24263 9.71402 4.51754 9.46878 4.79246 9.22355C5.1546 8.90203 5.51411 8.57778 5.87625 8.25625C6.41022 7.78758 7.20853 8.03282 7.36449 8.71674C7.44644 9.07096 7.32748 9.37887 7.10015 9.6459C6.95212 9.81756 6.80409 9.98649 6.65606 10.1582C6.63491 10.1854 6.61641 10.2154 6.58997 10.2562C7.58125 10.2562 8.55138 10.2562 9.53208 10.2562ZM9.52944 1.25897C9.59817 0.790309 9.3444 0.474233 8.90031 0.474233C7.4623 0.474233 6.02428 0.474233 4.58363 0.474233C4.13425 0.474233 3.88841 0.782135 3.95979 1.25897C5.81546 1.25897 7.67377 1.25897 9.52944 1.25897ZM5.4771 11.5178C5.5564 11.5178 5.59341 11.5178 5.63042 11.5178C6.72743 11.5178 7.82444 11.5178 8.92146 11.5178C9.34969 11.5178 9.6061 11.1936 9.52944 10.7522C9.51622 10.7494 9.50301 10.7413 9.49243 10.7413C8.40599 10.7413 7.31691 10.7385 6.23047 10.7413C6.19611 10.7413 6.15117 10.7522 6.13002 10.7767C5.9159 11.0137 5.70972 11.2508 5.4771 11.5178Z" fill="#EC4C2F"/>
<path d="M5.67803 6.24031C5.50885 6.24031 5.36347 6.24303 5.21544 6.24031C5.04097 6.23758 4.94052 6.14494 4.94317 5.99508C4.94581 5.85066 5.04097 5.76892 5.21279 5.76619C5.36347 5.76347 5.5115 5.76619 5.67539 5.76619C5.67539 5.55639 5.67275 5.36837 5.67539 5.17764C5.67803 4.9869 5.75998 4.90243 5.94502 4.90243C6.4737 4.89971 7.00502 4.89971 7.5337 4.90243C7.7161 4.90243 7.80333 4.99508 7.80597 5.18036C7.80862 5.36837 7.80597 5.55911 7.80597 5.76347C7.95136 5.76347 8.08089 5.76347 8.21306 5.76347C8.42717 5.76347 8.54084 5.84521 8.54084 5.9978C8.54084 6.15039 8.42453 6.23758 8.2157 6.24031C8.09146 6.24031 7.96986 6.24303 7.84562 6.24303C7.83769 6.24303 7.82976 6.24848 7.80333 6.25938C7.80333 6.43649 7.80333 6.61906 7.80333 6.80434C7.80069 7.01415 7.72403 7.0959 7.52049 7.0959C6.99445 7.09862 6.47105 7.09862 5.94502 7.0959C5.74676 7.0959 5.67275 7.01688 5.6701 6.81252C5.67539 6.62723 5.67803 6.44467 5.67803 6.24031ZM6.14063 5.75257C6.553 5.75257 6.94687 5.75257 7.34338 5.75257C7.34338 5.62451 7.34338 5.50461 7.34338 5.38472C6.93629 5.38472 6.54243 5.38472 6.14063 5.38472C6.14063 5.51006 6.14063 5.62723 6.14063 5.75257ZM6.14063 6.61906C6.55036 6.61906 6.94422 6.61906 7.34602 6.61906C7.34602 6.49372 7.34602 6.37382 7.34602 6.25121C6.93894 6.25121 6.54243 6.25121 6.14063 6.25121C6.14063 6.37655 6.14063 6.49099 6.14063 6.61906Z" fill="#EC4C2F"/>
<path d="M8.08618 4.62507C7.87471 4.62507 7.68438 4.62507 7.4967 4.62507C7.44383 4.62507 7.39096 4.62507 7.34074 4.6169C7.2165 4.5951 7.12662 4.49156 7.1372 4.37712C7.14777 4.24905 7.21914 4.15641 7.34074 4.15368C7.67117 4.14278 8.00159 4.14278 8.33202 4.15368C8.46154 4.15641 8.54084 4.2545 8.54349 4.38801C8.54878 4.70954 8.54878 5.03107 8.54349 5.35259C8.54084 5.49701 8.43511 5.60055 8.31087 5.59782C8.18663 5.59782 8.08882 5.49973 8.08618 5.34714C8.08089 5.11281 8.08618 4.8812 8.08618 4.62507Z" fill="#EC4C2F"/>
<path d="M5.39778 4.62516C5.39778 4.86222 5.39778 5.08565 5.39778 5.30909C5.39778 5.48892 5.30526 5.60064 5.1678 5.59791C5.03034 5.59519 4.94575 5.48892 4.94575 5.31726C4.94575 5.02026 4.94311 4.72325 4.94575 4.42353C4.94575 4.23552 5.03034 4.14832 5.21538 4.1456C5.50351 4.14287 5.79164 4.14287 6.08242 4.1456C6.24895 4.14832 6.34676 4.24097 6.34676 4.38538C6.34676 4.52707 6.24895 4.61971 6.07978 4.62516C5.85509 4.62789 5.63304 4.62516 5.39778 4.62516Z" fill="#EC4C2F"/>
<path d="M8.08356 7.3847C8.08356 7.18034 8.08356 6.98688 8.08356 6.79342C8.08356 6.73892 8.08091 6.68715 8.0862 6.63266C8.09942 6.49642 8.18401 6.41195 8.30296 6.4065C8.42191 6.40105 8.53558 6.48552 8.53822 6.61358C8.5488 6.95963 8.5488 7.30568 8.53558 7.64901C8.53029 7.77162 8.43777 7.85064 8.31353 7.85064C7.99632 7.85337 7.68176 7.85337 7.36455 7.85064C7.23502 7.84792 7.13722 7.74437 7.13457 7.62176C7.13193 7.49097 7.22974 7.39015 7.36984 7.38743C7.48879 7.3847 7.6051 7.38743 7.72405 7.38743C7.84036 7.3847 7.95139 7.3847 8.08356 7.3847Z" fill="#EC4C2F"/>
<path d="M5.39785 7.38466C5.64105 7.38466 5.86045 7.38466 6.08249 7.38466C6.24903 7.38466 6.34683 7.47457 6.34419 7.62171C6.34155 7.76068 6.24639 7.8506 6.09042 7.85332C5.79172 7.85605 5.49566 7.85605 5.19695 7.85332C5.02778 7.8506 4.94583 7.76613 4.94583 7.59174C4.94319 7.28384 4.94319 6.97866 4.94583 6.67076C4.94583 6.51 5.03571 6.40918 5.17052 6.40918C5.30533 6.40918 5.39785 6.51 5.39785 6.66803C5.39785 6.89964 5.39785 7.13398 5.39785 7.38466Z" fill="#EC4C2F"/>
<path d="M6.96805 0.863444C6.97069 0.991509 6.87553 1.1005 6.75129 1.10595C6.62705 1.1114 6.51074 0.996959 6.51074 0.868893C6.51074 0.746277 6.61912 0.634561 6.73808 0.631836C6.86232 0.631836 6.96541 0.732653 6.96805 0.863444Z" fill="#EC4C2F"/>
<path d="M6.74594 11.3664C6.6032 11.3664 6.4631 11.3691 6.32035 11.3664C6.16704 11.3637 6.07452 11.2656 6.0798 11.1239C6.08245 10.9877 6.17232 10.9005 6.323 10.9005C6.60584 10.8978 6.88869 10.8978 7.17417 10.9005C7.31692 10.9032 7.41472 11.0013 7.41208 11.1321C7.41208 11.2602 7.31163 11.3637 7.17153 11.3664C7.02879 11.3719 6.88604 11.3664 6.74594 11.3664Z" fill="#EC4C2F"/>
</g>
<defs>
<clipPath id="clip0_1383_2574">
<rect width="10" height="15" fill="white"/>
</clipPath>
</defs>
</svg>
