<svg width="11" height="11" viewBox="0 0 11 11" fill="none" xmlns="http://www.w3.org/2000/svg">
<g clip-path="url(#clip0_783_2535)">
<path d="M8.99921 1.25685C8.99921 0.9917 8.99545 0.753787 9.00015 0.515875C9.00704 0.172154 9.28885 -0.0573059 9.61168 0.0128156C9.83149 0.0607111 9.99807 0.25198 9.99964 0.48144C10.0037 1.16106 10.0046 1.84036 9.99901 2.51997C9.99682 2.7798 9.78671 2.99142 9.52682 2.99361C8.84328 2.99924 8.15942 2.99955 7.47587 2.99361C7.2069 2.99142 7.00023 2.76446 7.00086 2.49743C7.00149 2.23072 7.20909 2.01347 7.47869 2.00314C7.61521 1.99782 7.75204 2.00126 7.88888 2.00095C8.02039 2.00064 8.15221 2.00095 8.31723 2.00095C8.26556 1.95744 8.23926 1.93302 8.21077 1.91111C5.59463 -0.0826623 1.74823 1.35921 1.08848 4.58073C0.580593 7.06066 2.18253 9.45387 4.66935 9.91999C4.93269 9.96945 5.20416 9.98291 5.47251 9.99605C5.7825 10.0114 6.00012 10.2139 5.99668 10.5069C5.99323 10.7921 5.76998 11 5.4675 11C2.83069 11.0019 0.524231 9.05254 0.0805365 6.4474C-0.420773 3.50167 1.46673 0.713092 4.39255 0.119876C6.04083 -0.214453 7.54507 0.154937 8.8868 1.17295C8.91686 1.1958 8.94754 1.21803 8.99921 1.25685Z" fill="#EC4C2F"/>
<path d="M5.99739 3.83984C5.99739 4.28875 5.99489 4.73796 6.00053 5.18686C6.00115 5.24509 6.03027 5.31678 6.07098 5.3581C6.49275 5.78697 6.92205 6.20832 7.34382 6.63719C7.61968 6.91799 7.51072 7.36501 7.14342 7.47489C6.96119 7.52936 6.79116 7.49336 6.65527 7.35875C6.14769 6.85569 5.64294 6.3495 5.13881 5.843C5.04707 5.75065 5.00166 5.63608 5.00166 5.5046C5.00166 4.50099 4.99947 3.49737 5.00292 2.49407C5.00386 2.20764 5.22398 1.99978 5.50423 2.00197C5.77883 2.00416 5.99207 2.21077 5.9952 2.49282C6.00021 2.94172 5.99645 3.39094 5.99645 3.83984C5.99708 3.83984 5.99739 3.83984 5.99739 3.83984Z" fill="#EC4C2F"/>
<path d="M9.5314 9.03984C9.52671 9.31281 9.29907 9.53288 9.02477 9.52944C8.75267 9.52599 8.52784 9.29591 8.53129 9.02481C8.53473 8.75215 8.76269 8.52707 9.03385 8.52833C9.3119 8.52989 9.5361 8.76029 9.5314 9.03984Z" fill="#EC4C2F"/>
<path d="M7.41627 9.62305C7.69056 9.62462 7.91351 9.84844 7.9132 10.1224C7.91288 10.3947 7.68775 10.6207 7.41502 10.6223C7.13916 10.6238 6.90651 10.3897 6.9112 10.1152C6.91653 9.84124 7.14166 9.6218 7.41627 9.62305Z" fill="#EC4C2F"/>
<path d="M10.4967 5.99845C10.2195 5.9972 9.99973 5.77494 10.001 5.49758C10.0022 5.22148 10.2249 5.00266 10.5032 5.00391C10.7803 5.00485 11.003 5.2293 11.0002 5.50447C10.9977 5.7812 10.7747 5.9997 10.4967 5.99845Z" fill="#EC4C2F"/>
<path d="M10.1176 7.91644C9.84044 7.91425 9.62282 7.69167 9.62502 7.41338C9.62721 7.13728 9.85109 6.91908 10.1295 6.9219C10.4069 6.92472 10.6273 7.14948 10.6233 7.42527C10.6189 7.70294 10.3969 7.91894 10.1176 7.91644Z" fill="#EC4C2F"/>
</g>
<defs>
<clipPath id="clip0_783_2535">
<rect width="11" height="11" fill="white"/>
</clipPath>
</defs>
</svg>
