<svg width="35" height="24" viewBox="0 0 35 24" fill="none" xmlns="http://www.w3.org/2000/svg">
<g clip-path="url(#clip0_704_2427)">
<path d="M34.5555 22.6812C34.2445 23.0609 34.1084 23.1009 33.6517 22.911C31.2413 21.9216 28.8213 20.9322 26.411 19.9327C26.2166 19.8528 26.0514 19.8428 25.857 19.9327C23.2717 21.1021 20.6768 22.2614 18.0818 23.4307C17.7902 23.5607 17.5375 23.5607 17.2362 23.4307C14.6607 22.2614 12.0754 21.1021 9.49018 19.9327C9.2958 19.8428 9.13057 19.8328 8.93619 19.9227C6.52588 20.9222 4.11556 21.9116 1.69553 22.901C1.65665 22.921 1.61778 22.931 1.56918 22.951C1.32621 23.0609 1.09295 23.041 0.908288 22.8311C0.733346 22.6312 0.743065 22.4013 0.849974 22.1714C1.28733 21.212 1.7344 20.2525 2.17176 19.2931C3.27001 16.9144 4.36826 14.5458 5.44707 12.1672C5.58313 11.8773 5.7678 11.6874 6.05937 11.5475C7.52694 10.8679 8.98479 10.1483 10.4621 9.47869C10.6467 9.39874 10.9286 9.39874 11.1035 9.48869C11.2299 9.54865 11.3465 9.84848 11.3076 9.9984C11.259 10.1783 11.0647 10.3782 10.8897 10.4581C9.51933 11.1377 8.14895 11.7874 6.76885 12.427C6.54532 12.527 6.40925 12.6769 6.30234 12.9067C5.06803 15.6152 3.81427 18.3136 2.57024 21.0121C2.52164 21.122 2.47305 21.232 2.38558 21.4219C2.54108 21.3719 2.62855 21.3419 2.72574 21.3019C4.65011 20.5124 6.57447 19.7129 8.49884 18.9333C8.70294 18.8533 8.82928 18.7334 8.90704 18.5035C9.77203 16.0449 10.6565 13.5963 11.5409 11.1377C11.7256 10.628 11.9782 10.4381 12.3087 10.5581C12.6489 10.688 12.7266 10.9978 12.5419 11.5075C11.7061 13.8462 10.8606 16.1849 10.0247 18.5235C9.97613 18.6535 9.93725 18.7734 9.88866 18.9333C12.2893 20.0127 14.6704 21.0821 17.1099 22.1814C17.1196 22.0215 17.1293 21.9016 17.1293 21.7917C17.1293 20.2425 17.1293 18.6934 17.1293 17.1443C17.1293 16.7146 17.3723 16.4747 17.7222 16.5147C18.0138 16.5447 18.179 16.7745 18.179 17.1443C18.179 18.6834 18.179 20.2226 18.179 21.7617C18.179 21.8816 18.179 22.0015 18.179 22.1914C20.6087 21.1021 22.9996 20.0227 25.4196 18.9333C25.1961 18.2937 24.9726 17.674 24.749 17.0544C24.0784 15.1954 23.4078 13.3365 22.7469 11.4676C22.6789 11.2877 22.64 11.0478 22.6983 10.8879C22.7664 10.738 22.9802 10.5781 23.126 10.5681C23.2912 10.5581 23.4856 10.678 23.6313 10.7979C23.7188 10.8679 23.748 11.0378 23.7966 11.1577C24.681 13.6163 25.5557 16.0649 26.4401 18.5135C26.4887 18.6535 26.6054 18.8134 26.7317 18.8733C28.7533 19.7228 30.7748 20.5524 32.8061 21.3819C32.8255 21.3919 32.845 21.3819 32.9227 21.3919C32.8741 21.262 32.8255 21.162 32.7867 21.0621C31.9217 19.1732 31.047 17.2942 30.182 15.4053C30.1528 15.3453 30.1236 15.2854 30.0945 15.2254C29.9195 14.8356 29.9973 14.5158 30.2889 14.3759C30.5902 14.236 30.8817 14.3659 31.0567 14.7457C31.6593 16.0349 32.2521 17.3342 32.845 18.6335C33.3698 19.7728 33.8946 20.9122 34.4292 22.0615C34.468 22.1415 34.5166 22.2114 34.5652 22.2914C34.5555 22.4113 34.5555 22.5512 34.5555 22.6812Z" fill="white"/>
<path d="M17.6639 14.6159C18.7816 13.3366 19.8313 12.0574 20.7157 10.6582C21.1822 9.90859 21.6293 9.13903 21.9986 8.33948C22.8247 6.53052 22.3582 4.91144 21.1628 3.45227C20.8032 3.01252 20.7351 2.72269 21.017 2.46284C21.2794 2.22298 21.5904 2.30293 21.95 2.69271C23.2329 4.12189 24.0493 6.51053 22.9705 8.81921C22.1541 10.5882 21.0559 12.1673 19.8604 13.6764C19.3259 14.356 18.7622 14.9957 18.1985 15.6453C17.8097 16.0951 17.5376 16.0951 17.1585 15.6653C15.4091 13.6864 13.7569 11.6376 12.5712 9.23897C12.1435 8.37946 11.8422 7.47997 11.8617 6.49054C11.92 3.77209 14.1165 1.22355 16.7309 0.843762C17.8291 0.683854 18.8982 0.793791 19.9285 1.24353C19.9868 1.27352 20.0548 1.29351 20.1131 1.32349C20.4533 1.49339 20.5796 1.77323 20.4436 2.07306C20.3075 2.38288 20.0354 2.45284 19.666 2.32292C19.1898 2.16301 18.7136 1.98311 18.2179 1.91315C15.691 1.54336 13.2904 3.50224 12.9599 6.09077C12.8141 7.21013 13.1932 8.15959 13.6888 9.08906C14.7385 11.1079 16.1575 12.8669 17.6639 14.6159Z" fill="white"/>
<path d="M20.2977 6.7605C20.2977 8.24965 19.1217 9.44897 17.6736 9.45896C16.1865 9.45896 15.0105 8.25965 15.0203 6.73052C15.0203 5.24137 16.1963 4.03206 17.6347 4.04205C17.8582 4.04205 18.0915 4.07204 18.315 4.12201C18.5969 4.19197 18.7426 4.44183 18.7038 4.74165C18.6649 5.02149 18.4414 5.1914 18.1401 5.1914C17.8582 5.1814 17.5666 5.13143 17.2945 5.1914C16.4004 5.38129 15.8853 6.30076 16.1379 7.21025C16.3809 8.07975 17.3139 8.57946 18.1498 8.28963C18.9953 7.99979 19.4327 7.04034 19.1217 6.18083C19.0828 6.0609 19.0148 5.96096 18.9759 5.84103C18.8884 5.56119 19.0148 5.26136 19.2675 5.16141C19.5396 5.06147 19.7729 5.12144 19.9284 5.38129C20.1908 5.80105 20.3171 6.26079 20.2977 6.7605Z" fill="white"/>
<path d="M30.3764 13.2963C30.2403 13.4462 30.1431 13.6661 29.9779 13.736C29.8321 13.796 29.6086 13.7161 29.4336 13.6561C29.3461 13.6261 29.2781 13.4862 29.249 13.3862C29.074 12.7466 28.6269 12.4268 28.0438 12.1769C26.8289 11.6472 25.6335 11.0476 24.4283 10.4779C24.0298 10.288 23.8938 10.0082 24.0396 9.68836C24.1853 9.37854 24.4769 9.29858 24.856 9.47848C26.3527 10.1881 27.8397 10.8877 29.3267 11.6073C29.5211 11.7072 29.7057 11.9071 29.8127 12.107C30.0265 12.4668 30.1723 12.8566 30.3764 13.2963Z" fill="white"/>
</g>
<defs>
<clipPath id="clip0_704_2427">
<rect width="33.7833" height="22.767" fill="white" transform="translate(0.772705 0.773438)"/>
</clipPath>
</defs>
</svg>
